<svg width="390" height="548" viewBox="0 0 390 548" fill="none" xmlns="http://www.w3.org/2000/svg">
<path d="M191.564 5.5C191.564 5.5 197.707 5.09911 202.063 3.00001C204.719 1.7201 208.988 4.50001 208.988 4.50001C208.988 4.50001 212.922 -0.464772 214.796 2.50001C216.007 4.41598 220.827 3.00001 220.827 3.00001L234.677 27.5L230.879 23L233.573 39.5042C234.819 42.5018 235.123 49 235.123 49L233.573 39.5042C233.498 39.3225 233.419 39.1537 233.336 39C230.472 33.6645 230.735 50.8289 229.986 59C228.557 74.5683 234.843 113.83 231.773 99.5C230.89 95.3786 229.986 88.5 229.986 88.5C229.986 88.5 231.595 133.873 229.986 121.5C229.66 118.999 229.315 115 229.315 115L227.975 145.5C227.975 145.5 228.095 142.737 227.975 141C227.24 130.373 221.711 150.491 217.253 154.5C214.539 156.941 213.02 160.025 210.104 159.5C205.124 158.603 204.567 147.208 200.946 139.5C199.47 136.359 198.631 134.625 197.148 131.5C194.093 125.06 191.119 123.496 189.33 115C188.482 110.972 188.316 108.392 187.989 104C187.273 94.3517 188.599 88.7797 188.66 79C188.678 76.0714 188.468 74.3975 188.66 71.5C189.128 64.4079 189.094 66.1029 188.66 59C188.495 56.3054 189.062 49.0664 188.66 46.5C187.938 41.8936 190.085 41.8779 190 37C189.902 31.3687 191.564 23 191.564 23L188.66 28.5C188.66 28.5 188.784 20.4902 190 16.5C192.084 9.66447 198.935 9.50001 198.935 9.50001L191.564 5.5Z" fill="#701C28"/>
<path d="M202.063 3.00001C197.707 5.09911 191.564 5.5 191.564 5.5L198.935 9.50001C198.935 9.50001 192.084 9.66447 190 16.5C188.784 20.4902 188.66 28.5 188.66 28.5L191.564 23C191.564 23 189.902 31.3687 190 37C190.085 41.8779 187.938 41.8936 188.66 46.5C189.062 49.0664 188.495 56.3054 188.66 59C189.094 66.1029 189.128 64.4079 188.66 71.5C188.468 74.3975 188.678 76.0714 188.66 79C188.599 88.7797 187.273 94.3517 187.989 104C188.316 108.392 188.482 110.972 189.33 115C191.119 123.496 194.093 125.06 197.148 131.5C198.631 134.625 199.47 136.359 200.946 139.5C204.567 147.208 205.124 158.603 210.104 159.5C213.02 160.025 214.539 156.941 217.253 154.5C221.711 150.491 227.24 130.373 227.975 141C228.095 142.737 227.975 145.5 227.975 145.5L229.315 115C229.315 115 229.66 118.999 229.986 121.5C231.595 133.873 229.986 88.5 229.986 88.5C229.986 88.5 230.89 95.3786 231.773 99.5C234.843 113.83 228.557 74.5683 229.986 59C230.735 50.8289 230.472 33.6645 233.336 39C234.781 41.6903 235.123 49 235.123 49L230.879 23L234.677 27.5L220.827 3.00001C220.827 3.00001 216.007 4.41598 214.796 2.50001C212.922 -0.464772 208.988 4.50001 208.988 4.50001C208.988 4.50001 204.719 1.7201 202.063 3.00001Z" stroke="black" stroke-width="0.1"/>
<path d="M203.638 8.05585L202.968 13.5558L220.392 17.0558L219.498 13.5558V11.5558L215.924 8.05585L214.36 6.55585H211.68H208.776L206.989 4.55585L205.648 6.55585L203.638 8.05585Z" fill="#50C878" stroke="black" stroke-width="0.1"/>
<g filter="url(#filter0_d_8_99)">
<path d="M180.957 102.409V88H200.617V102.409L210.247 108.5C210.247 108.5 214.58 111.446 217.87 112.5C225.428 114.922 230.866 116.416 231.512 120.748C232.641 128.31 253.179 168.865 253.179 168.865L264.815 198L258.395 230.5L247.963 261L247.241 264.5C247.241 264.5 249.167 271 249.568 273C249.969 275 245.957 279 245.957 279C245.957 279 244.847 281.021 244.352 281C243.842 280.979 242.747 279.5 242.747 279.5C242.747 279.5 241.652 279.979 241.142 280C240.647 280.021 239.537 278.5 239.537 278.5C239.537 278.5 239.031 279.918 238.333 280C237.69 280.076 236.327 279 236.327 279C236.327 279 235.823 280.056 235.123 280C234.316 279.935 233.117 278.366 233.117 278.366L231.111 273L239.938 261L245.556 226.5L251.574 201.5L237.13 174C237.13 174 221.08 143.286 219.074 146C217.068 148.714 220.788 157.372 220.679 168.865C220.487 189.189 214.668 200.022 217.87 219.881C220.103 233.725 222.487 238.339 225.895 251.738C228.309 261.232 229.939 266.881 230.71 276.866C231.449 286.44 231.512 291.889 231.512 301.515V313.959L227.441 358.233L223.429 393.51C223.429 393.51 224.746 399.752 225.093 403.863C225.483 408.496 225.093 411.14 225.093 415.803C225.093 431.487 221.741 437.382 220.679 453C219.644 468.234 217.87 496.125 217.87 496.125C217.87 496.125 218.229 499.926 217.87 502.638C217.486 505.544 217.87 508.608 217.87 508.608L222.284 529.231L219.877 535.201L213.457 539L200.617 535.201L196.605 529.231L200.617 508.608C200.617 508.608 202.532 504.405 202.222 501.552C201.926 498.826 203.827 497.753 203.827 497.753C203.827 497.753 203.314 447.963 200.617 418.516C200.209 414.054 200.746 411.493 200.617 407C200.44 400.825 200.617 393.51 200.617 393.51L196.605 313.959L195 285.55C195 285.55 193.552 281.473 191.79 281.208C189.796 280.908 187.778 285.55 187.778 285.55L184.568 313.959L180.957 356.103L176.944 393.51C176.944 393.51 177.496 398.699 177.747 402.777C178.033 407.424 176.944 413.853 176.944 418.516C176.944 434.2 174.796 437.382 173.735 453C172.699 468.234 169.722 496.125 169.722 496.125C169.722 496.125 171.285 499.926 170.926 502.638C170.541 505.544 171.728 508.608 171.728 508.608L176.142 529.231L173.735 535.201L167.315 539L154.475 535.201L150.463 529.231L154.475 508.608C154.475 508.608 155.989 506.575 155.679 503.723C155.383 500.997 157.284 496.125 157.284 496.125C157.284 496.125 157.173 447.963 154.475 418.516C154.067 414.054 155.808 408.355 155.679 403.863C155.502 397.688 154.475 391.38 154.475 391.38L151.667 313.959C151.667 313.959 151.899 306.406 151.667 301.515C151.21 291.888 151.493 286.331 152.87 276.866C154.353 266.68 156.139 261.206 159.29 251.738C163.72 238.43 164.978 234.129 167.315 219.881C170.615 199.755 164.211 189.469 163.704 168.865C163.421 157.378 166.914 148.785 164.907 148.785C162.901 148.785 148.858 189.5 148.858 189.5L138.827 219.881L118.765 259.5C118.765 259.5 119.803 270.209 118.765 276.866C118.323 279.707 118.475 280.84 117.562 283.5C117.148 284.704 116.358 287 116.358 287L113.549 303.5C113.549 303.5 112.322 304.225 111.543 304C110.78 303.78 109.938 302.5 109.938 302.5L111.944 290.5L108.333 305.5C108.333 305.5 106.767 306.024 105.926 305.5C105.331 305.13 104.722 304 104.722 304L108.333 289.5L103.117 307.5C103.117 307.5 101.517 307.632 100.71 307C99.9956 306.44 99.9074 304.5 99.9074 304.5L105.123 288L100.71 300.5C100.71 300.5 98.7998 302.376 97.9012 301.5C97.1505 300.768 97.5 298.5 97.5 298.5C97.5 298.5 99.6118 294.823 101.512 286C101.692 285.166 103.056 282.108 104.003 279.5C104.732 277.494 105.215 275.754 104.722 275.5C104.288 275.276 101.914 277.5 101.914 277.5C101.914 277.5 101.217 279.759 100.309 281C99.1281 282.613 98.2644 286.976 96.6975 286C95.7573 285.414 95.4938 284 95.4938 284C95.4938 284 96.3011 279.982 96.6975 278.5C97.2581 276.404 99.5062 274 99.5062 274C99.5062 274 100.566 272.445 101.512 271C103.271 268.313 104.007 266.51 105.926 264C107.547 261.88 110.741 259.5 110.741 259.5L123.179 210.5L136.42 186C136.42 186 142.858 143.357 144.846 136.845C146.782 130.5 146.906 126.122 150.062 120.748C153.524 114.852 158.667 115.706 163.704 112.5C169.814 108.611 170.926 108.5 170.926 108.5L180.957 102.409Z" fill="#FFEEDD"/>
<path d="M231.111 273L239.938 261L245.556 226.5L251.574 201.5L237.13 174C237.13 174 221.08 143.286 219.074 146C217.068 148.714 220.788 157.372 220.679 168.865C220.487 189.189 214.668 200.022 217.87 219.881C220.103 233.725 222.487 238.339 225.895 251.738C228.309 261.232 229.939 266.881 230.71 276.866C231.449 286.44 231.512 291.889 231.512 301.515C231.512 306.375 231.512 313.959 231.512 313.959L227.441 358.233L223.429 393.51C223.429 393.51 224.746 399.752 225.093 403.863C225.483 408.496 225.093 411.14 225.093 415.803C225.093 431.487 221.741 437.382 220.679 453C219.644 468.234 217.87 496.125 217.87 496.125C217.87 496.125 218.229 499.926 217.87 502.638C217.486 505.544 217.87 508.608 217.87 508.608L222.284 529.231L219.877 535.201L213.457 539L200.617 535.201L196.605 529.231L200.617 508.608C200.617 508.608 202.532 504.404 202.222 501.552C201.926 498.826 203.827 497.753 203.827 497.753C203.827 497.753 203.314 447.963 200.617 418.516C200.209 414.054 200.746 411.493 200.617 407C200.44 400.825 200.617 393.51 200.617 393.51L196.605 313.959L195 285.55C195 285.55 193.552 281.473 191.79 281.208C189.796 280.908 187.778 285.55 187.778 285.55L184.568 313.959L180.957 356.103L176.944 393.51C176.944 393.51 177.496 398.699 177.747 402.777C178.033 407.424 176.944 413.853 176.944 418.516C176.944 434.2 174.796 437.382 173.735 453C172.699 468.234 169.722 496.125 169.722 496.125C169.722 496.125 171.285 499.926 170.926 502.638C170.541 505.544 171.728 508.608 171.728 508.608L176.142 529.231L173.735 535.201L167.315 539L154.475 535.201L150.463 529.231L154.475 508.608C154.475 508.608 155.989 506.575 155.679 503.723C155.383 500.997 157.284 496.125 157.284 496.125C157.284 496.125 157.173 447.963 154.475 418.516C154.067 414.054 155.808 408.355 155.679 403.863C155.502 397.688 154.475 391.38 154.475 391.38L151.667 313.959C151.667 313.959 151.899 306.406 151.667 301.515C151.21 291.888 151.493 286.331 152.87 276.866C154.353 266.679 156.139 261.206 159.29 251.738C163.72 238.43 164.978 234.129 167.315 219.881C170.615 199.755 164.211 189.469 163.704 168.865C163.421 157.378 166.914 148.785 164.907 148.785C162.901 148.785 148.858 189.5 148.858 189.5L138.827 219.881L118.765 259.5C118.765 259.5 119.803 270.209 118.765 276.866C118.323 279.707 118.475 280.84 117.562 283.5C117.148 284.704 116.358 287 116.358 287M231.111 273L233.117 278.366C233.117 278.366 234.316 279.935 235.123 280C235.823 280.056 236.327 279 236.327 279M231.111 273C237.171 271.75 240.5 272.376 246.358 275M245.957 279C245.957 279 244.847 281.021 244.352 281C243.842 280.979 242.747 279.5 242.747 279.5M245.957 279C245.957 279 249.969 275 249.568 273C249.167 271 247.241 264.5 247.241 264.5L247.963 261L258.395 230.5L264.815 198L253.179 168.865C253.179 168.865 232.641 128.31 231.512 120.748C230.866 116.416 225.428 114.922 217.87 112.5C214.58 111.446 210.247 108.5 210.247 108.5L200.617 102.409V88H180.957V102.409L170.926 108.5C170.926 108.5 169.814 108.611 163.704 112.5C158.667 115.706 153.524 114.852 150.062 120.748C146.906 126.122 146.782 130.5 144.846 136.845C142.858 143.357 136.42 186 136.42 186L123.179 210.5L110.741 259.5C110.741 259.5 107.547 261.88 105.926 264C104.007 266.51 103.271 268.313 101.512 271C100.566 272.445 99.5062 274 99.5062 274C99.5062 274 97.2581 276.404 96.6975 278.5C96.3011 279.982 95.4938 284 95.4938 284C95.4938 284 95.7573 285.414 96.6975 286C98.2644 286.976 99.1281 282.613 100.309 281C101.217 279.759 101.914 277.5 101.914 277.5C101.914 277.5 104.288 275.276 104.722 275.5C105.855 276.084 101.83 284.524 101.512 286C99.6118 294.823 97.5 298.5 97.5 298.5C97.5 298.5 97.1505 300.768 97.9012 301.5C98.7998 302.376 100.71 300.5 100.71 300.5L105.123 288L99.9074 304.5C99.9074 304.5 99.9956 306.44 100.71 307C101.517 307.632 103.117 307.5 103.117 307.5L108.333 289.5L104.722 304C104.722 304 105.331 305.13 105.926 305.5C106.767 306.024 108.333 305.5 108.333 305.5L111.944 290.5L109.938 302.5C109.938 302.5 110.78 303.78 111.543 304C112.322 304.224 113.549 303.5 113.549 303.5L116.358 287M245.957 279C245.957 279 246.358 276.866 246.358 275M236.327 279L235.525 274.5M236.327 279C236.327 279 237.69 280.076 238.333 280C239.031 279.918 239.537 278.5 239.537 278.5M239.537 278.5L239.344 275.677M239.537 278.5C239.537 278.5 240.647 280.021 241.142 280C241.652 279.979 242.747 279.5 242.747 279.5M242.747 279.5L242.346 276.5M246.358 271.5C247.16 270.5 246.358 273.134 246.358 275M116.358 287L108.333 285H104.333M112.747 262V269.5L106.601 281L104.003 279.5L108.333 282L115.957 281.208" stroke="black" stroke-width="0.1"/>
</g>
<path d="M166.914 77.2245C160.494 66.1735 160.494 40 160.494 40H219.074C219.074 40 219.074 66.1735 213.457 77.2245C207.84 88.2755 195 97 190.794 97C186.588 97 173.333 88.2755 166.914 77.2245Z" fill="#FFEEDD" stroke="black" stroke-width="0.1"/>
<path d="M190.185 74L189.383 77L190.185 78.5" stroke="black" stroke-width="0.5"/>
<path d="M186.975 86.75C186.975 86.75 188.717 87.5558 190.185 87.5558C191.654 87.5558 194.198 86.75 194.198 86.75" stroke="black" stroke-width="0.5"/>
<path d="M220.352 56.5336C219.497 56.5039 218.192 57.2069 218.192 57.2069L214.999 73.8405C214.999 73.8405 219.992 71.1172 221.753 67.6071C223.283 64.5565 225.094 61.4448 223.484 58.6967C222.65 57.2735 221.769 56.5827 220.352 56.5336Z" fill="#FFEEDD" stroke="black" stroke-width="0.1"/>
<path d="M173.904 55C176.481 55 181.358 59.7727 181.358 59.7727C181.358 59.7727 181.941 65.0765 181.759 67C181.557 69.1427 180.573 70 180.573 70H169.589C166.914 70 163.704 65.3846 163.704 61.1364C163.704 56.8881 171.327 55 173.904 55Z" fill="white"/>
<path d="M176.493 62.5C176.493 64.2872 176.046 65.9028 175.325 67.0699C174.604 68.2379 173.615 68.95 172.531 68.95C171.447 68.95 170.457 68.2379 169.736 67.0699C169.016 65.9028 168.568 64.2872 168.568 62.5C168.568 60.7128 169.016 59.0972 169.736 57.9301C170.457 56.7621 171.447 56.05 172.531 56.05C173.615 56.05 174.604 56.7621 175.325 57.9301C176.046 59.0972 176.493 60.7128 176.493 62.5Z" fill="#50C878" stroke="black" stroke-width="0.1"/>
<ellipse cx="172.531" cy="62.5" rx="0.802469" ry="2.5" fill="black"/>
<path d="M172.481 60C172.481 61.0878 171.775 61.95 170.926 61.95C170.077 61.95 169.371 61.0878 169.371 60C169.371 58.9122 170.077 58.05 170.926 58.05C171.775 58.05 172.481 58.9122 172.481 60Z" fill="white" stroke="black" stroke-width="0.1"/>
<path d="M205.664 55C203.087 55 199.71 57.1621 198.21 59.7727C198.21 59.7727 197.689 64.8194 197.809 67C197.918 68.9883 198.994 70 198.994 70H209.979C212.654 70 215.864 65.3846 215.864 61.1364C215.864 56.8881 208.241 55 205.664 55Z" fill="white"/>
<path d="M210.197 62.5C210.197 64.2872 209.75 65.9028 209.029 67.0699C208.308 68.2379 207.319 68.95 206.235 68.95C205.15 68.95 204.161 68.2379 203.44 67.0699C202.719 65.9028 202.272 64.2872 202.272 62.5C202.272 60.7128 202.719 59.0972 203.44 57.9301C204.161 56.7621 205.15 56.05 206.235 56.05C207.319 56.05 208.308 56.7621 209.029 57.9301C209.75 59.0972 210.197 60.7128 210.197 62.5Z" fill="#50C878" stroke="black" stroke-width="0.1"/>
<ellipse cx="206.235" cy="62.5" rx="0.802469" ry="2.5" fill="black"/>
<path d="M206.185 60C206.185 61.0878 205.479 61.95 204.63 61.95C203.781 61.95 203.075 61.0878 203.075 60C203.075 58.9122 203.781 58.05 204.63 58.05C205.479 58.05 206.185 58.9122 206.185 60Z" fill="white" stroke="black" stroke-width="0.1"/>
<path d="M159.264 56.5016C160.025 56.5412 161.245 57.3427 161.245 57.3427L165.399 74.0739C165.399 74.0739 160.727 70.9738 158.88 67.3554C157.275 64.2108 155.415 60.9829 156.637 58.3912C157.27 57.049 158.003 56.4359 159.264 56.5016Z" fill="#FFEEDD" stroke="black" stroke-width="0.1"/>
<path d="M180.396 59.7727C180.396 59.7727 175.866 55 173.473 55C171.08 55 164 56.8881 164 61.1364" stroke="#701C28" stroke-width="2"/>
<path d="M164 61.1364C164 65.3846 166.981 70 169.465 70" stroke="black" stroke-width="0.1"/>
<path d="M169.217 70H179.419" stroke="black" stroke-width="0.1"/>
<path d="M198.26 59.8679C198.26 59.8679 203.043 54.9688 205.57 54.9688C208.097 54.9688 215.573 56.9069 215.573 61.2676" stroke="#701C28" stroke-width="2"/>
<path d="M216.135 60.9329C216.135 65.2936 212.988 70.0312 210.365 70.0312" stroke="black" stroke-width="0.1"/>
<path d="M210.627 70.0312H199.854" stroke="black" stroke-width="0.1"/>
<g filter="url(#filter1_d_8_99)">
<path d="M175.917 3.21434C179.441 1.62159 181.641 1.54477 185.38 1.2052C188.215 0.94771 189.826 0.915947 192.659 1.2052C195.531 1.49843 197.128 1.9144 199.938 2.71205C203.565 3.74184 205.719 4.13162 209.037 6.22804C213.746 9.20332 216.376 11.7217 219.294 17.2052C221.869 22.0436 222.154 25.5799 223.306 31.2052C224.173 35.4358 224.699 37.847 224.911 42.2052C224.933 42.6563 224.945 43.136 224.949 43.6321C224.993 49.4523 224.288 56.4801 219.294 59.47C217.699 60.4249 215.683 58.7359 215.683 58.7359L214.479 50.4039C213.646 52.1439 210.962 55.2365 209.664 56.4563C208.423 57.6228 207.581 58.4655 207.581 58.4655L207.257 51.2052L198.482 61.4792C198.482 61.4792 200.048 57.1722 200.666 55.7052C200.666 55.7052 196.915 59.9588 195.22 60.2052C193.911 60.3954 192.659 60.4746 192.659 60.4746L194.535 50.2528C193.438 53.6178 189.561 59.6606 189.127 61.7496L188.399 54.7052C187.844 55.8316 183.985 59.47 183.985 59.47L185.991 42.8947C185.991 42.8947 182.964 54.5371 182.781 55.7052C182.658 56.4947 178.828 59.9723 178.828 59.9723C178.828 59.9723 179.75 51.2231 179.427 49.6286C178.073 53.9837 177.029 57.7702 176.958 59.2965L173.954 53.2052C172.797 54.5643 168.273 59.47 168.273 59.47L171.185 40.7052C170.819 41.1823 164.998 61.4792 164.998 61.4792C164.998 61.4792 164.63 59.9552 164.27 59.47C163.091 57.8797 166.967 42.8621 166.818 40.7052C166.818 40.7052 163.592 46.1735 162.814 52.4381C162.036 58.7026 164.998 79.5614 164.998 79.5614L168.273 95.2052L171.185 104.676C171.185 104.676 171.432 107.035 170.821 108.191C170.415 108.961 169.365 109.698 169.365 109.698L168.273 107.689L165.726 95.2052C165.726 95.2052 166.961 106.222 166.818 107.187C166.629 108.457 165.726 110.201 165.726 110.201H164.998C164.998 110.201 164.245 106.771 163.542 104.676C162.93 102.854 160.977 78.9706 160.266 77.2052C160.92 79.4765 162.622 103.781 162.814 106.182C162.97 108.134 162.814 111.205 162.814 111.205C162.814 111.205 161.156 109.17 160.266 107.689C159.377 106.208 156.953 85.9175 156.627 79.5614C156.3 73.2052 156.627 70.3775 156.627 64.4929C156.627 58.6083 156.509 55.3072 156.627 49.4244C156.76 42.7478 157.355 32.3468 157.355 32.3468C157.355 32.3468 158.431 22.4139 161.115 17.2052C163.599 12.384 165.88 10.3387 169.729 7.2052C172.007 5.35088 173.359 4.37032 175.917 3.21434Z" fill="#701C28"/>
<path d="M173.954 53.2052C172.797 54.5643 168.273 59.47 168.273 59.47L171.185 40.7052C170.819 41.1823 164.998 61.4792 164.998 61.4792C164.998 61.4792 164.63 59.9552 164.27 59.47C163.091 57.8797 166.967 42.8621 166.818 40.7052C166.818 40.7052 163.592 46.1735 162.814 52.4381C162.036 58.7026 164.998 79.5614 164.998 79.5614L168.273 95.2052M173.954 53.2052C178.542 47.8173 177.967 28.2052 177.967 28.2052M173.954 53.2052L176.958 59.2965C177.17 54.7553 185.991 30.2052 185.991 30.2052M179.357 49.4244C179.862 50.1603 178.828 59.9723 178.828 59.9723C178.828 59.9723 182.658 56.4947 182.781 55.7052C182.964 54.5371 185.991 42.8947 185.991 42.8947L183.985 59.47C183.985 59.47 187.844 55.8316 188.399 54.7052M188.399 54.7052C189.251 52.9729 189.127 31.2052 189.127 31.2052M188.399 54.7052L189.127 61.7496C189.641 59.2751 194.986 51.2528 194.819 48.7052M194.819 48.7052C194.605 45.4551 195.22 25.7052 195.22 25.7052M194.819 48.7052L192.659 60.4746C192.659 60.4746 193.911 60.3954 195.22 60.2052C196.915 59.9588 200.666 55.7052 200.666 55.7052M200.666 55.7052C200.666 55.7052 202.392 52.66 202.85 50.4039C203.35 47.9413 202.855 46.2796 202.85 43.8993C202.841 39.8348 200.666 24.7052 200.666 24.7052M200.666 55.7052C200.048 57.1722 198.482 61.4792 198.482 61.4792L207.257 51.2052M207.257 51.2052L209.037 24.7052M207.257 51.2052L207.581 58.4655C207.581 58.4655 208.423 57.6228 209.664 56.4563C210.962 55.2365 213.646 52.1439 214.479 50.4039M214.479 50.4039C215.985 47.2578 214.479 28.2052 214.479 28.2052M214.479 50.4039L215.683 58.7359C215.683 58.7359 217.699 60.4249 219.294 59.47V59.47C224.288 56.4801 224.993 49.4523 224.949 43.6321C224.945 43.136 224.933 42.6563 224.911 42.2052C224.699 37.847 224.173 35.4358 223.306 31.2052C222.154 25.5799 221.869 22.0436 219.294 17.2052C216.376 11.7217 213.746 9.20332 209.037 6.22804C205.719 4.13162 203.565 3.74184 199.938 2.71205C197.128 1.9144 195.531 1.49843 192.659 1.2052C189.826 0.915947 188.215 0.94771 185.38 1.2052C181.641 1.54477 179.441 1.62159 175.917 3.21434C173.359 4.37032 172.007 5.35088 169.729 7.2052C165.88 10.3387 163.599 12.384 161.115 17.2052C158.431 22.4139 157.355 32.3468 157.355 32.3468C157.355 32.3468 156.76 42.7478 156.627 49.4244C156.509 55.3072 156.627 58.6083 156.627 64.4929C156.627 70.3775 156.3 73.2052 156.627 79.5614C156.953 85.9175 159.377 106.208 160.266 107.689C161.156 109.17 162.814 111.205 162.814 111.205C162.814 111.205 162.97 108.134 162.814 106.182C162.622 103.781 160.92 79.4765 160.266 77.2052C160.977 78.9706 162.93 102.854 163.542 104.676C164.245 106.771 164.998 110.201 164.998 110.201H165.726C165.726 110.201 166.629 108.457 166.818 107.187C166.961 106.222 165.726 95.2052 165.726 95.2052L168.273 107.689L169.365 109.698C169.365 109.698 170.415 108.961 170.821 108.191C171.432 107.035 171.185 104.676 171.185 104.676L168.273 95.2052M168.273 95.2052L171.549 105.178" stroke="black" stroke-width="0.1"/>
</g>
<g filter="url(#filter2_d_8_99)">
<path d="M186.375 108.516L188.8 137.564L195.669 129.551L196.478 108.516C196.478 108.516 200.719 107.408 200.923 104.91C201.127 102.402 200.519 100.002 200.519 100.002C200.519 100.002 203.289 101.763 204.964 103.007C206.285 103.988 208.197 104.91 208.197 104.91C208.197 104.91 232.241 114.526 234.867 118.432C237.292 122.038 269.577 187.659 270.832 194.659C273.257 208.182 248.607 258.766 248.607 258.766V260.77L247.798 262.773L240.121 259.267L239.716 257.264L240.121 255.761L237.292 253.758C237.292 253.758 251.664 203.674 247.798 198.165C239.716 186.646 224.361 160.603 224.361 160.603C224.361 160.603 217.491 209.684 221.128 224.71C222.405 229.986 220.32 230.72 220.32 230.72C220.32 230.72 222.732 233.103 223.552 235.227C224.37 237.344 224.361 241.154 224.361 241.154C224.361 241.154 228.178 249.859 230.018 255.761C233.287 266.25 233.565 272.764 235.271 283.808C241.098 321.518 239.716 374.459 239.716 374.459C239.716 374.459 229.579 378.31 224.361 381.972C219.827 385.153 223.126 382.87 219.107 386.98C210.666 395.614 202.539 399 188.8 399H182.334C171.019 396.496 170.559 392.99 159.3 392.99C156.876 392.99 150.346 388.196 147.177 384.476C143.282 379.902 137.075 374.459 137.075 374.459C137.075 374.459 137.273 324.77 144.753 289.818C148.937 270.267 159.061 241.154 159.061 241.154C159.061 241.154 158.639 237.395 159.3 235.227C159.937 233.141 162.129 230.72 162.129 230.72C162.129 230.72 159.704 231.22 159.061 229.217C158.418 227.214 163.614 177.58 162.39 156.334C162.82 150.825 132.486 241.476 124 256C121.366 260.509 120 257.5 120 257.5V259.267L118.486 260.77L110 256.763L110.404 253.758L111.616 251.755L111.621 251.757C112.039 251.076 143.387 120.618 148.107 116.429C152.857 112.213 173.161 104.91 173.161 104.91C173.161 104.91 175.109 103.712 176.677 102.506C178.206 101.33 180.718 99 180.718 99C180.718 99 181.122 102.681 182.334 104.91C184.109 108.173 186.375 108.516 186.375 108.516Z" fill="#000080"/>
<path d="M186.375 108.516L188.8 137.564M186.375 108.516C186.375 108.516 184.109 108.173 182.334 104.91C181.122 102.681 180.718 99 180.718 99C180.718 99 178.206 101.33 176.677 102.506C175.109 103.712 173.161 104.91 173.161 104.91M186.375 108.516L181.684 120.035M173.161 104.91C173.161 104.91 152.857 112.213 148.107 116.429M173.161 104.91C173.161 104.91 173.669 108.085 174.252 110.018C175.911 115.514 180.718 122.539 180.718 122.539L181.684 120.035M196.478 108.516L195.669 129.551L188.8 137.564M196.478 108.516C196.478 108.516 200.719 107.408 200.923 104.91C201.127 102.402 200.519 100.002 200.519 100.002C200.519 100.002 203.289 101.763 204.964 103.007C206.285 103.988 208.197 104.91 208.197 104.91M196.478 108.516L200.923 116.529M208.197 104.91C208.197 104.91 232.241 114.526 234.867 118.432M208.197 104.91C208.197 104.91 208.97 107.986 209.005 110.018C209.093 115.181 204.56 122.038 204.56 122.038L200.923 116.529M188.8 137.564L191.224 143.073M191.224 143.073L192.032 237.23C192.032 237.23 190.062 335.825 188.8 399M191.224 143.073L200.317 131.053L200.923 116.529M188.8 399C186.275 399 184.859 399 182.334 399M188.8 399C202.539 399 210.666 395.614 219.107 386.98C223.126 382.87 219.827 385.153 224.361 381.972C229.579 378.31 239.716 374.459 239.716 374.459C239.716 374.459 241.098 321.518 235.271 283.808C233.565 272.764 233.287 266.25 230.018 255.761C228.178 249.859 224.361 241.154 224.361 241.154M182.334 399C184.07 300.032 186.779 145.578 186.779 145.578L183.546 137.564L181.684 120.035M182.334 399C171.019 396.496 170.559 392.99 159.3 392.99C156.876 392.99 150.346 388.196 147.177 384.476C143.282 379.902 137.075 374.459 137.075 374.459C137.075 374.459 137.273 324.77 144.753 289.818C148.937 270.267 159.061 241.154 159.061 241.154M148.107 116.429C143.357 120.645 111.637 252.748 111.616 251.755M148.107 116.429C148.107 116.429 155.696 121.614 159.061 127.548C164.525 137.182 162.39 156.334 162.39 156.334M111.616 251.755L120 257.5M111.616 251.755L110.404 253.758L110 256.763L118.486 260.77L120 259.267V257.5M120 257.5C120 257.5 121.366 260.509 124 256C132.486 241.476 162.82 150.825 162.39 156.334M162.39 156.334C163.614 177.58 158.418 227.214 159.061 229.217C159.704 231.22 162.129 230.72 162.129 230.72M162.129 230.72H164.958M162.129 230.72C162.129 230.72 159.937 233.141 159.3 235.227C158.639 237.395 159.061 241.154 159.061 241.154M234.867 118.432C237.292 122.038 269.577 187.659 270.832 194.659C273.257 208.182 248.607 258.766 248.607 258.766M234.867 118.432C234.867 118.432 227.434 122.646 224.361 127.548C217.97 137.741 224.361 160.603 224.361 160.603M248.607 258.766L240.121 255.761M248.607 258.766V260.77L247.798 262.773L240.121 259.267L239.716 257.264L240.121 255.761M240.121 255.761L237.292 253.758C237.292 253.758 251.664 203.674 247.798 198.165C239.716 186.646 224.361 160.603 224.361 160.603M224.361 160.603C224.361 160.603 217.491 209.684 221.128 224.71C222.405 229.986 220.32 230.72 220.32 230.72M220.32 230.72H219.107M220.32 230.72C220.32 230.72 222.732 233.103 223.552 235.227C224.37 237.344 224.361 241.154 224.361 241.154M224.361 241.154H219.915M159.061 241.154H163.341M164.958 230.72L163.341 241.154M164.958 230.72H169.403M163.341 241.154H167.382M167.382 241.154L169.403 230.72M167.382 241.154H173.444M169.403 230.72H174.656M174.656 230.72L173.444 241.154M174.656 230.72H182.334M173.444 241.154H179.101M179.101 241.154L182.334 230.72M179.101 241.154H194.861M182.334 230.72H195.669M195.669 230.72L194.861 241.154M195.669 230.72H202.539M194.861 241.154H200.923M200.923 241.154L202.539 230.72M200.923 241.154H207.388M202.539 230.72H208.197M208.197 230.72L207.388 241.154M208.197 230.72H215.47M207.388 241.154H214.258M214.258 241.154L215.47 230.72M214.258 241.154H219.915M215.47 230.72H219.107M219.107 230.72L219.915 241.154" stroke="black" stroke-width="0.5"/>
</g>
<ellipse cx="184.368" cy="117" rx="0.368421" ry="1" fill="black"/>
<ellipse cx="197.632" cy="117" rx="0.368421" ry="1" fill="black"/>
<ellipse cx="185.105" cy="124" rx="0.368421" ry="1" fill="black"/>
<ellipse cx="197.632" cy="124" rx="0.368421" ry="1" fill="black"/>
<ellipse cx="186.579" cy="131" rx="0.368421" ry="1" fill="black"/>
<ellipse cx="196.895" cy="131" rx="0.368421" ry="1" fill="black"/>
<ellipse cx="186.579" cy="138" rx="0.368421" ry="1" fill="black"/>
<ellipse cx="191.737" cy="138" rx="0.368421" ry="1" fill="black"/>
<ellipse cx="188.79" cy="143" rx="0.368421" ry="1" fill="black"/>
<ellipse cx="188.79" cy="150" rx="0.368421" ry="1" fill="black"/>
<ellipse cx="188.79" cy="159" rx="0.368421" ry="1" fill="black"/>
<ellipse cx="188.79" cy="168" rx="0.368421" ry="1" fill="black"/>
<ellipse cx="188.79" cy="177" rx="0.368421" ry="1" fill="black"/>
<ellipse cx="188.79" cy="186" rx="0.368421" ry="1" fill="black"/>
<ellipse cx="188.79" cy="195" rx="0.368421" ry="1" fill="black"/>
<ellipse cx="188.79" cy="205" rx="0.368421" ry="1" fill="black"/>
<ellipse cx="188.79" cy="216" rx="0.368421" ry="1" fill="black"/>
<ellipse cx="188.79" cy="227" rx="0.368421" ry="1" fill="black"/>
<ellipse cx="188.79" cy="248" rx="0.368421" ry="1" fill="black"/>
<ellipse cx="188.79" cy="260" rx="0.368421" ry="1" fill="black"/>
<ellipse cx="188.79" cy="275" rx="0.368421" ry="1" fill="black"/>
<ellipse cx="188.053" cy="289" rx="0.368421" ry="1" fill="black"/>
<ellipse cx="188.053" cy="306" rx="0.368421" ry="1" fill="black"/>
<defs>
<filter id="filter0_d_8_99" x="91.4429" y="87.95" width="177.424" height="459.104" filterUnits="userSpaceOnUse" color-interpolation-filters="sRGB">
<feFlood flood-opacity="0" result="BackgroundImageFix"/>
<feColorMatrix in="SourceAlpha" type="matrix" values="0 0 0 0 0 0 0 0 0 0 0 0 0 0 0 0 0 0 127 0" result="hardAlpha"/>
<feOffset dy="4"/>
<feGaussianBlur stdDeviation="2"/>
<feComposite in2="hardAlpha" operator="out"/>
<feColorMatrix type="matrix" values="0 0 0 0 0 0 0 0 0 0 0 0 0 0 0 0 0 0 0.25 0"/>
<feBlend mode="normal" in2="BackgroundImageFix" result="effect1_dropShadow_8_99"/>
<feBlend mode="normal" in="SourceGraphic" in2="effect1_dropShadow_8_99" result="shape"/>
</filter>
<filter id="filter1_d_8_99" x="152.432" y="0.949997" width="76.569" height="118.388" filterUnits="userSpaceOnUse" color-interpolation-filters="sRGB">
<feFlood flood-opacity="0" result="BackgroundImageFix"/>
<feColorMatrix in="SourceAlpha" type="matrix" values="0 0 0 0 0 0 0 0 0 0 0 0 0 0 0 0 0 0 127 0" result="hardAlpha"/>
<feOffset dy="4"/>
<feGaussianBlur stdDeviation="2"/>
<feComposite in2="hardAlpha" operator="out"/>
<feColorMatrix type="matrix" values="0 0 0 0 0 0 0 0 0 0 0 0 0 0 0 0 0 0 0.25 0"/>
<feBlend mode="normal" in2="BackgroundImageFix" result="effect1_dropShadow_8_99"/>
<feBlend mode="normal" in="SourceGraphic" in2="effect1_dropShadow_8_99" result="shape"/>
</filter>
<filter id="filter2_d_8_99" x="105.728" y="98.4788" width="169.522" height="308.771" filterUnits="userSpaceOnUse" color-interpolation-filters="sRGB">
<feFlood flood-opacity="0" result="BackgroundImageFix"/>
<feColorMatrix in="SourceAlpha" type="matrix" values="0 0 0 0 0 0 0 0 0 0 0 0 0 0 0 0 0 0 127 0" result="hardAlpha"/>
<feOffset dy="4"/>
<feGaussianBlur stdDeviation="2"/>
<feComposite in2="hardAlpha" operator="out"/>
<feColorMatrix type="matrix" values="0 0 0 0 0 0 0 0 0 0 0 0 0 0 0 0 0 0 0.25 0"/>
<feBlend mode="normal" in2="BackgroundImageFix" result="effect1_dropShadow_8_99"/>
<feBlend mode="normal" in="SourceGraphic" in2="effect1_dropShadow_8_99" result="shape"/>
</filter>
</defs>
</svg>
